<?xml version="1.0" encoding="UTF-8"?>
<!-- Generator: Adobe Illustrator 28.1.0, SVG Export Plug-In . SVG Version: 6.00 Build 0)  -->
<svg xmlns="http://www.w3.org/2000/svg" xmlns:xlink="http://www.w3.org/1999/xlink" version="1.1" id="Ebene_1" x="0px" y="0px" viewBox="0 0 986.6 1121.9" style="enable-background:new 0 0 986.6 1121.9;" xml:space="preserve">
<style type="text/css">
	.st0{fill:#FFFFFF;}
	.st1{fill:#5A5A5A;}
</style>
<path class="st0" d="M969.2,733.8h-65.8V17.3c0-9.6-7.7-17.3-17.3-17.3h-569c-9.5,0-17.3,7.7-17.3,17.3v536.6H17.3  c-9.6,0-17.3,7.7-17.3,17.3v533.4c0,9.6,7.7,17.3,17.3,17.3h564.6c0.9,0,1.7-0.1,2.6-0.2c0.8,0.1,1.7,0.2,2.5,0.2h230.6  c9.6,0,17.3-7.7,17.3-17.3V1020H870v84.6c0,9.6,7.7,17.3,17.3,17.3h82c9.5,0,17.3-7.7,17.3-17.3V751  C986.5,741.5,978.8,733.8,969.2,733.8z"></path>
<g>
	<path class="st1" d="M133.1,642.1c0-9.6-7.7-17.3-17.3-17.3c-9.5,0-17.3,7.8-17.3,17.3v27.4c0,9.6,7.8,17.3,17.3,17.3   c9.6,0,17.3-7.7,17.3-17.3V642.1z"></path>
	<path class="st1" d="M206.7,642.1c0-9.6-7.8-17.3-17.3-17.3c-9.6,0-17.3,7.8-17.3,17.3v27.4c0,9.6,7.7,17.3,17.3,17.3   s17.3-7.7,17.3-17.3V642.1z"></path>
	<path class="st1" d="M280.3,642.1c0-9.6-7.7-17.3-17.3-17.3s-17.3,7.8-17.3,17.3v27.4c0,9.6,7.7,17.3,17.3,17.3   c9.5,0,17.3-7.7,17.3-17.3V642.1z"></path>
	<path class="st1" d="M353.9,642.1c0-9.6-7.7-17.3-17.3-17.3s-17.3,7.8-17.3,17.3v27.4c0,9.6,7.7,17.3,17.3,17.3s17.3-7.7,17.3-17.3   V642.1z"></path>
	<path class="st1" d="M427.6,642.1c0-9.6-7.7-17.3-17.3-17.3c-9.5,0-17.3,7.8-17.3,17.3v27.4c0,9.6,7.8,17.3,17.3,17.3   c9.6,0,17.3-7.7,17.3-17.3V642.1z"></path>
	<path class="st1" d="M501.2,642.1c0-9.6-7.7-17.3-17.3-17.3s-17.3,7.8-17.3,17.3v27.4c0,9.6,7.7,17.3,17.3,17.3s17.3-7.7,17.3-17.3   V642.1z"></path>
	<path class="st1" d="M432.9,88.1c0-9.6-7.7-17.3-17.3-17.3s-17.3,7.7-17.3,17.3v27.4c0,9.5,7.7,17.3,17.3,17.3s17.3-7.8,17.3-17.3   V88.1z"></path>
	<path class="st1" d="M506.5,88.1c0-9.6-7.7-17.3-17.3-17.3s-17.3,7.7-17.3,17.3v27.4c0,9.5,7.7,17.3,17.3,17.3s17.3-7.8,17.3-17.3   V88.1z"></path>
	<path class="st1" d="M580.1,88.1c0-9.6-7.7-17.3-17.3-17.3s-17.3,7.7-17.3,17.3v27.4c0,9.5,7.8,17.3,17.3,17.3   c9.6,0,17.3-7.8,17.3-17.3V88.1z"></path>
	<path class="st1" d="M653.7,88.1c0-9.6-7.7-17.3-17.3-17.3s-17.3,7.7-17.3,17.3v27.4c0,9.5,7.8,17.3,17.3,17.3   c9.6,0,17.3-7.8,17.3-17.3V88.1z"></path>
	<path class="st1" d="M727.4,88.1c0-9.6-7.7-17.3-17.3-17.3s-17.3,7.7-17.3,17.3v27.4c0,9.5,7.7,17.3,17.3,17.3s17.3-7.8,17.3-17.3   V88.1z"></path>
	<path class="st1" d="M801,88.1c0-9.6-7.7-17.3-17.3-17.3s-17.3,7.7-17.3,17.3v27.4c0,9.5,7.7,17.3,17.3,17.3S801,125,801,115.5   V88.1z"></path>
	<path class="st1" d="M133.1,760.9c0-9.6-7.7-17.3-17.3-17.3c-9.5,0-17.3,7.7-17.3,17.3v27.4c0,9.6,7.8,17.3,17.3,17.3   c9.6,0,17.3-7.7,17.3-17.3V760.9z"></path>
	<path class="st1" d="M206.7,760.9c0-9.6-7.8-17.3-17.3-17.3c-9.6,0-17.3,7.7-17.3,17.3v27.4c0,9.6,7.7,17.3,17.3,17.3   s17.3-7.7,17.3-17.3V760.9z"></path>
	<path class="st1" d="M280.3,760.9c0-9.6-7.7-17.3-17.3-17.3s-17.3,7.7-17.3,17.3v27.4c0,9.6,7.7,17.3,17.3,17.3   c9.5,0,17.3-7.7,17.3-17.3V760.9z"></path>
	<path class="st1" d="M353.9,760.9c0-9.6-7.7-17.3-17.3-17.3s-17.3,7.7-17.3,17.3v27.4c0,9.6,7.7,17.3,17.3,17.3s17.3-7.7,17.3-17.3   V760.9z"></path>
	<path class="st1" d="M427.6,760.9c0-9.6-7.7-17.3-17.3-17.3c-9.5,0-17.3,7.7-17.3,17.3v27.4c0,9.6,7.8,17.3,17.3,17.3   c9.6,0,17.3-7.7,17.3-17.3V760.9z"></path>
	<path class="st1" d="M501.2,760.9c0-9.6-7.7-17.3-17.3-17.3s-17.3,7.7-17.3,17.3v27.4c0,9.6,7.7,17.3,17.3,17.3s17.3-7.7,17.3-17.3   V760.9z"></path>
	<path class="st1" d="M432.9,206.9c0-9.5-7.7-17.3-17.3-17.3s-17.3,7.7-17.3,17.3v27.4c0,9.6,7.7,17.3,17.3,17.3s17.3-7.8,17.3-17.3   V206.9z"></path>
	<path class="st1" d="M506.5,206.9c0-9.5-7.7-17.3-17.3-17.3s-17.3,7.7-17.3,17.3v27.4c0,9.6,7.7,17.3,17.3,17.3s17.3-7.8,17.3-17.3   V206.9z"></path>
	<path class="st1" d="M580.1,206.9c0-9.5-7.7-17.3-17.3-17.3s-17.3,7.7-17.3,17.3v27.4c0,9.6,7.8,17.3,17.3,17.3   c9.6,0,17.3-7.8,17.3-17.3V206.9z"></path>
	<path class="st1" d="M653.7,206.9c0-9.5-7.7-17.3-17.3-17.3s-17.3,7.7-17.3,17.3v27.4c0,9.6,7.8,17.3,17.3,17.3   c9.6,0,17.3-7.8,17.3-17.3V206.9z"></path>
	<path class="st1" d="M727.4,206.9c0-9.5-7.7-17.3-17.3-17.3s-17.3,7.7-17.3,17.3v27.4c0,9.6,7.7,17.3,17.3,17.3s17.3-7.8,17.3-17.3   V206.9z"></path>
	<path class="st1" d="M801,206.9c0-9.5-7.7-17.3-17.3-17.3s-17.3,7.7-17.3,17.3v27.4c0,9.6,7.7,17.3,17.3,17.3s17.3-7.8,17.3-17.3   V206.9z"></path>
	<path class="st1" d="M115.8,862.5c-9.5,0-17.3,7.7-17.3,17.3v27.4c0,9.6,7.8,17.3,17.3,17.3c9.6,0,17.3-7.7,17.3-17.3v-27.4   C133.1,870.2,125.3,862.5,115.8,862.5L115.8,862.5z"></path>
	<path class="st1" d="M189.4,862.5c-9.6,0-17.3,7.7-17.3,17.3v27.4c0,9.6,7.7,17.3,17.3,17.3s17.3-7.7,17.3-17.3v-27.4   C206.7,870.2,199,862.5,189.4,862.5L189.4,862.5z"></path>
	<path class="st1" d="M263,862.5c-9.6,0-17.3,7.7-17.3,17.3v27.4c0,9.6,7.7,17.3,17.3,17.3c9.5,0,17.3-7.7,17.3-17.3v-27.4   C280.3,870.2,272.6,862.5,263,862.5L263,862.5z"></path>
	<path class="st1" d="M336.6,862.5c-9.6,0-17.3,7.7-17.3,17.3v27.4c0,9.6,7.7,17.3,17.3,17.3s17.3-7.7,17.3-17.3v-27.4   C353.9,870.2,346.2,862.5,336.6,862.5L336.6,862.5z"></path>
	<path class="st1" d="M410.3,862.5c-9.5,0-17.3,7.7-17.3,17.3v27.4c0,9.6,7.8,17.3,17.3,17.3c9.6,0,17.3-7.7,17.3-17.3v-27.4   C427.6,870.2,419.8,862.5,410.3,862.5L410.3,862.5z"></path>
	<path class="st1" d="M483.9,862.5c-9.6,0-17.3,7.7-17.3,17.3v27.4c0,9.6,7.7,17.3,17.3,17.3s17.3-7.7,17.3-17.3v-27.4   C501.2,870.2,493.5,862.5,483.9,862.5L483.9,862.5z"></path>
	<path class="st1" d="M415.6,308.4c-9.6,0-17.3,7.8-17.3,17.3v27.4c0,9.6,7.7,17.3,17.3,17.3s17.3-7.8,17.3-17.3v-27.4   C432.9,316.2,425.1,308.4,415.6,308.4L415.6,308.4z"></path>
	<path class="st1" d="M489.2,308.4c-9.6,0-17.3,7.8-17.3,17.3v27.4c0,9.6,7.7,17.3,17.3,17.3s17.3-7.8,17.3-17.3v-27.4   C506.5,316.2,498.8,308.4,489.2,308.4z"></path>
	<path class="st1" d="M562.8,308.4c-9.6,0-17.3,7.8-17.3,17.3v27.4c0,9.6,7.8,17.3,17.3,17.3c9.6,0,17.3-7.8,17.3-17.3v-27.4   C580.1,316.2,572.4,308.4,562.8,308.4z"></path>
	<path class="st1" d="M636.4,308.4c-9.6,0-17.3,7.8-17.3,17.3v27.4c0,9.6,7.8,17.3,17.3,17.3c9.6,0,17.3-7.8,17.3-17.3v-27.4   C653.7,316.2,646,308.4,636.4,308.4z"></path>
	<path class="st1" d="M710.1,308.4c-9.6,0-17.3,7.8-17.3,17.3v27.4c0,9.6,7.7,17.3,17.3,17.3s17.3-7.8,17.3-17.3v-27.4   C727.4,316.2,719.7,308.4,710.1,308.4z"></path>
	<path class="st1" d="M783.7,308.4c-9.6,0-17.3,7.8-17.3,17.3v27.4c0,9.6,7.7,17.3,17.3,17.3s17.3-7.8,17.3-17.3v-27.4   C801,316.2,793.3,308.4,783.7,308.4z"></path>
	<path class="st1" d="M317.1,575.4c9.6,0,17.3-7.7,17.3-17.3V34.6h534.4v707.1c0,9.6,7.7,17.3,17.3,17.3s17.3-7.8,17.3-17.3V17.3   c0-9.6-7.7-17.3-17.3-17.3h-569c-9.5,0-17.3,7.7-17.3,17.3v540.8C299.8,567.6,307.6,575.4,317.1,575.4L317.1,575.4z"></path>
	<path class="st1" d="M969.2,733.8H715.4c-9.6,0-17.3,7.7-17.3,17.3c0,9.6,7.7,17.3,17.3,17.3h236.5v319h-47.3v-84.6   c0-9.6-7.7-17.3-17.3-17.3h-69.7c-9.6,0-17.3,7.7-17.3,17.3v84.6h-196l0.4-516.1c0-4.6-1.8-9-5.1-12.3c-3.2-3.2-7.6-5.1-12.2-5.1   H17.3c-9.6,0-17.3,7.7-17.3,17.3v533.4c0,9.6,7.7,17.3,17.3,17.3h564.6c9.6,0,17.3-7.7,17.3-17.3s-7.7-17.3-17.3-17.3H34.6V588.5   h535.5l-0.4,516.1c0,4.6,1.8,9,5.1,12.2c3.2,3.2,7.6,5.1,12.2,5.1h230.6c9.6,0,17.3-7.7,17.3-17.3V1020H870v84.6   c0,9.6,7.7,17.3,17.3,17.3h82c9.5,0,17.3-7.7,17.3-17.3V751C986.5,741.5,978.8,733.8,969.2,733.8L969.2,733.8z"></path>
</g>
</svg>
