<?xml version="1.0" encoding="UTF-8"?>
<!-- Generator: Adobe Illustrator 28.1.0, SVG Export Plug-In . SVG Version: 6.00 Build 0)  -->
<svg xmlns="http://www.w3.org/2000/svg" xmlns:xlink="http://www.w3.org/1999/xlink" version="1.1" id="Ebene_1" x="0px" y="0px" viewBox="0 0 677.6 870" style="enable-background:new 0 0 677.6 870;" xml:space="preserve">
<style type="text/css">
	.st0{fill:#FFFFFF;}
	.st1{fill:#5A5A5A;}
</style>
<g>
	<path class="st0" d="M673,248.2L429.3,4.6c-1.7-1.7-3.3-2.8-5.1-3.5c-1.3-0.5-2.5-0.7-3.6-0.8c-0.1,0-0.2,0-0.3-0.1   c-0.4-0.1-1-0.3-1.7-0.3H15C6.7,0,0,6.7,0,15v840c0,8.3,6.7,15,15,15h647.6c8.3,0,15-6.7,15-15V259   C677.6,254.9,675.9,250.9,673,248.2z"></path>
</g>
<g>
	<path class="st1" d="M125.3,250.5h213.5c8.3,0,15-6.7,15-15s-6.7-15-15-15H125.3c-8.3,0-15,6.7-15,15S117,250.5,125.3,250.5z"></path>
	<path class="st1" d="M110.3,343.5c0,8.3,6.7,15,15,15h427c8.3,0,15-6.7,15-15s-6.7-15-15-15h-427   C117,328.5,110.3,335.2,110.3,343.5z"></path>
	<path class="st1" d="M552.3,436.4h-427c-8.3,0-15,6.7-15,15s6.7,15,15,15h427c8.3,0,15-6.7,15-15S560.6,436.4,552.3,436.4z"></path>
	<path class="st1" d="M552.3,544.3h-427c-8.3,0-15,6.7-15,15s6.7,15,15,15h427c8.3,0,15-6.7,15-15S560.6,544.3,552.3,544.3z"></path>
	<path class="st1" d="M540.6,652.2H125.2c-8.3,0-15,6.7-15,15s6.7,15,15,15h415.4c8.3,0,15-6.7,15-15S548.9,652.2,540.6,652.2z"></path>
	<path class="st1" d="M673,248.2L429.3,4.6c-1.7-1.7-3.3-2.8-5.1-3.5c-1.3-0.5-2.5-0.7-3.6-0.8c-0.1,0-0.2,0-0.3-0.1   c-0.4-0.1-1-0.3-1.7-0.3H15C6.7,0,0,6.7,0,15v840c0,8.3,6.7,15,15,15h647.6c8.3,0,15-6.7,15-15V259   C677.6,254.9,675.9,250.9,673,248.2z M433.6,244V51.2L626.4,244H433.6z M418.6,273.9h229v566H30v-810h373.6v229   C403.6,267.2,410.3,273.9,418.6,273.9z"></path>
</g>
</svg>
