<?xml version="1.0" encoding="UTF-8"?>
<!-- Generator: Adobe Illustrator 28.1.0, SVG Export Plug-In . SVG Version: 6.00 Build 0)  -->
<svg xmlns="http://www.w3.org/2000/svg" xmlns:xlink="http://www.w3.org/1999/xlink" version="1.1" id="Ebene_1" x="0px" y="0px" viewBox="0 0 1035.8 993.3" style="enable-background:new 0 0 1035.8 993.3;" xml:space="preserve">
<style type="text/css">
	.st0{fill:#FFFFFF;}
	.st1{fill:#5A5A5A;}
</style>
<g>
	<path class="st0" d="M1035.8,243.3c0-4-1.7-7.9-4.6-10.8c-0.1-0.1-0.1-0.1-0.2-0.1c-2.8-2.8-6.6-4.3-10.7-4.3H744.6V15.3   c0-3.9-1.6-7.9-4.4-10.8c-2.7-2.8-6.7-4.5-10.9-4.5H306.4c-3.9,0-7.9,1.6-10.8,4.4c-2.9,2.9-4.4,6.7-4.4,10.8V228H15.3   c-3.9,0-7.9,1.6-10.8,4.4c-2.8,2.7-4.5,6.7-4.5,10.9v734.1c0,3.9,1.6,7.9,4.4,10.8c2.7,2.8,6.7,4.5,10.9,4.5h285.4   c0.2,0,0.3,0,0.5-0.1l0.5-0.1c1.7,0.6,3.3,0.8,4.7,0.8h422.9c1.5,0,3-0.3,4.7-0.8l0.5,0.1c0.2,0,0.3,0.1,0.5,0.1h285.4   c3.9,0,7.9-1.6,10.8-4.4c2.8-2.7,4.5-6.7,4.5-10.9L1035.8,243.3z M578.6,962.9H457.1"></path>
</g>
<g>
	<path class="st1" d="M1035.8,243.3c0-4-1.7-7.9-4.6-10.8c-0.1-0.1-0.1-0.1-0.2-0.1c-2.8-2.8-6.6-4.3-10.7-4.3H744.6V15.3   c0-3.9-1.6-7.9-4.4-10.8c-2.7-2.8-6.7-4.5-10.9-4.5H306.4c-3.9,0-7.9,1.6-10.8,4.4c-2.9,2.9-4.4,6.7-4.4,10.8V228H15.3   c-3.9,0-7.9,1.6-10.8,4.4c-2.8,2.7-4.5,6.7-4.5,10.9v734.1c0,3.9,1.6,7.9,4.4,10.8c2.7,2.8,6.7,4.5,10.9,4.5h285.4   c0.2,0,0.3,0,0.5-0.1l0.5-0.1c1.7,0.6,3.3,0.8,4.7,0.8h422.9c1.5,0,3-0.3,4.7-0.8l0.5,0.1c0.2,0,0.3,0.1,0.5,0.1h285.4   c3.9,0,7.9-1.6,10.8-4.4c2.8-2.7,4.5-6.7,4.5-10.9L1035.8,243.3z M1005.2,258.5V962H744.6V258.5H1005.2z M578.6,765.4v197.5H457.1   V765.4H578.6z M604.7,739.3c-2.9-2.9-6.7-4.4-10.8-4.4H441.8c-3.9,0-7.9,1.6-10.8,4.4c0,0-0.1,0-0.1,0.1c-2.8,3-4.4,6.9-4.4,10.8   V963H321.6V30.6h392.3V963H609.1V750.2C609.2,746.2,607.6,742.3,604.7,739.3z M291.2,258.5V962H30.6V258.5H291.2z"></path>
	<path class="st1" d="M640.9,239.7v-57c0-11.4-9.2-20.6-20.6-20.6h-48.6v-48.6c0-11.4-9.2-20.6-20.6-20.6h-57   c-11.4,0-20.6,9.2-20.6,20.6v48.6h-48.6c-11.4,0-20.6,9.2-20.6,20.6v57c0,11.4,9.2,20.6,20.6,20.6h48.6v48.6   c0,11.4,9.2,20.6,20.6,20.6h57c11.4,0,20.6-9.2,20.6-20.6v-48.6h48.6C631.6,260.3,640.9,251,640.9,239.7z"></path>
	<path class="st1" d="M681.5,657c2.8-2.7,4.5-6.7,4.5-10.9v-66.4c0-3.9-1.6-7.9-4.4-10.8c0,0,0-0.1-0.1-0.1c-3-2.8-6.9-4.4-10.8-4.4   H604c-3.9,0-7.9,1.6-10.8,4.4c-2.9,2.9-4.4,6.7-4.4,10.8V646c0,3.9,1.6,7.9,4.4,10.8c2.7,2.8,6.7,4.5,10.9,4.5h66.7   C674.7,661.4,678.6,659.8,681.5,657z M655.5,595v35.8h-36.1V595H655.5z"></path>
	<path class="st1" d="M562,568.8c-3-2.8-6.9-4.4-10.8-4.4h-66.7c-3.9,0-7.9,1.6-10.8,4.4c-2.9,2.9-4.4,6.7-4.4,10.8V646   c0,3.9,1.6,7.9,4.4,10.8c2.7,2.8,6.7,4.5,10.9,4.5h66.7c3.9,0,7.9-1.6,10.8-4.4c2.8-2.7,4.5-6.7,4.5-10.9v-66.4   C566.5,575.8,564.9,571.8,562,568.8C562.1,568.9,562,568.8,562,568.8z M535.9,595v35.8h-36.1V595H535.9z"></path>
	<path class="st1" d="M431.7,564.4H365c-3.9,0-7.9,1.6-10.8,4.4c-2.9,2.9-4.4,6.7-4.4,10.8V646c0,3.9,1.6,7.9,4.4,10.8   c2.7,2.8,6.7,4.5,10.9,4.5h66.7c3.9,0,7.9-1.6,10.8-4.4c2.8-2.7,4.5-6.7,4.5-10.9v-66.4c0-3.9-1.6-7.9-4.4-10.8   C439.6,566,435.8,564.4,431.7,564.4z M416.4,595v35.8h-36.1V595H416.4z"></path>
	<path class="st1" d="M604.1,528.6h66.7c3.9,0,7.9-1.6,10.8-4.4c2.8-2.7,4.5-6.7,4.5-10.9v-66.4c0-3.9-1.6-7.9-4.4-10.8   c-2.9-2.9-6.7-4.4-10.8-4.4h-66.7c-3.9,0-7.8,1.6-10.8,4.4l0,0c-2.9,2.9-4.4,6.7-4.4,10.8v66.4c0,3.9,1.6,7.9,4.4,10.8   C595.9,526.9,599.8,528.6,604.1,528.6z M619.3,498v-35.8h36.1V498H619.3z"></path>
	<path class="st1" d="M562,436c-3-2.8-6.9-4.4-10.8-4.4h-66.7c-3.9,0-7.9,1.6-10.8,4.4c-2.9,2.9-4.4,6.7-4.4,10.8v66.4   c0,3.9,1.6,7.9,4.4,10.8c2.7,2.8,6.7,4.5,10.9,4.5h66.7c3.9,0,7.9-1.6,10.8-4.4c2.8-2.7,4.5-6.7,4.5-10.9v-66.4   C566.5,443,564.9,439,562,436C562.1,436,562,436,562,436z M535.9,462.2V498h-36.1v-35.8H535.9z"></path>
	<path class="st1" d="M431.7,431.6H365c-3.9,0-7.9,1.6-10.8,4.4c-2.9,2.9-4.4,6.7-4.4,10.8v66.4c0,3.9,1.6,7.9,4.4,10.8   c2.7,2.8,6.7,4.5,10.9,4.5h66.7c3.9,0,7.9-1.6,10.8-4.4c2.8-2.7,4.5-6.7,4.5-10.9v-66.4c0-3.9-1.6-7.9-4.4-10.8   C439.6,433.2,435.8,431.6,431.7,431.6z M416.4,462.2V498h-36.1v-35.8H416.4z"></path>
	<path class="st1" d="M796.8,661.4h159.4c3.9,0,7.9-1.6,10.8-4.4c2.8-2.7,4.5-6.7,4.5-10.9v-66.4c0-3.9-1.6-7.9-4.4-10.8   c-2.9-2.9-6.7-4.4-10.8-4.4H796.9c-3.9,0-7.9,1.6-10.8,4.4c-2.9,2.9-4.4,6.7-4.4,10.8v66.4c0,3.9,1.6,7.9,4.4,10.8   C788.6,659.8,792.6,661.4,796.8,661.4z M812.1,630.8V595h128.8v35.8H812.1z"></path>
	<path class="st1" d="M796.8,528.6h159.4c3.9,0,7.9-1.6,10.8-4.4c2.8-2.7,4.5-6.7,4.5-10.9v-66.4c0-3.9-1.6-7.9-4.4-10.8   c-2.9-2.9-6.7-4.4-10.8-4.4H796.9c-3.9,0-7.9,1.6-10.8,4.4c-2.9,2.9-4.4,6.7-4.4,10.8v66.4c0,3.9,1.6,7.9,4.4,10.8   C788.6,526.9,792.6,528.6,796.8,528.6z M812.1,498v-35.8h128.8V498H812.1z"></path>
	<path class="st1" d="M796.8,395.7h159.4c3.9,0,7.9-1.6,10.8-4.4c2.8-2.7,4.5-6.7,4.5-10.9V314c0-3.9-1.6-7.9-4.4-10.8   c-2.9-2.9-6.7-4.4-10.8-4.4H796.9c-3.9,0-7.9,1.6-10.8,4.4c-2.9,2.9-4.4,6.7-4.4,10.8v66.4c0,3.9,1.6,7.9,4.4,10.8   C788.6,394.1,792.6,395.7,796.8,395.7z M812.1,365.2v-35.9h128.8v35.8H812.1V365.2z"></path>
	<path class="st1" d="M79.5,661.4h159.4c3.9,0,7.9-1.6,10.8-4.4c2.8-2.7,4.5-6.7,4.5-10.9v-66.4c0-3.9-1.6-7.9-4.4-10.8   c-2.9-2.9-6.7-4.4-10.8-4.4H79.5c-3.9,0-7.9,1.6-10.8,4.4c-2.9,2.9-4.4,6.7-4.4,10.8v66.4c0,3.9,1.6,7.9,4.4,10.8   C71.4,659.8,75.3,661.4,79.5,661.4z M223.7,595v35.8H94.9V595H223.7z"></path>
	<path class="st1" d="M79.5,528.6h159.4c3.9,0,7.9-1.6,10.8-4.4c2.8-2.7,4.5-6.7,4.5-10.9v-66.4c0-3.9-1.6-7.9-4.4-10.8   c-2.9-2.9-6.7-4.4-10.8-4.4H79.5c-3.9,0-7.9,1.6-10.8,4.4c-2.9,2.9-4.4,6.7-4.4,10.8v66.4c0,3.9,1.6,7.9,4.4,10.8   C71.4,526.9,75.3,528.6,79.5,528.6z M223.7,462.2V498H94.9v-35.8H223.7z"></path>
	<path class="st1" d="M79.5,395.7h159.4c3.9,0,7.9-1.6,10.8-4.4c2.8-2.7,4.5-6.7,4.5-10.9V314c0-3.9-1.6-7.9-4.4-10.8   c-2.9-2.9-6.7-4.4-10.8-4.4H79.5c-3.9,0-7.9,1.6-10.8,4.4c-2.9,2.9-4.4,6.7-4.4,10.8v66.4c0,3.9,1.6,7.9,4.4,10.8   C71.4,394.1,75.3,395.7,79.5,395.7z M223.7,329.3v35.8H94.9v-35.8H223.7z"></path>
</g>
</svg>
