<?xml version="1.0" encoding="UTF-8" standalone="no"?>
<svg
   xmlns:dc="http://purl.org/dc/elements/1.1/"
   xmlns:cc="http://creativecommons.org/ns#"
   xmlns:rdf="http://www.w3.org/1999/02/22-rdf-syntax-ns#"
   xmlns:svg="http://www.w3.org/2000/svg"
   xmlns="http://www.w3.org/2000/svg"
   viewBox="0 0 391.02667 81.720001"
   height="81.720001"
   width="391.02667"
   xml:space="preserve"
   id="svg2"
   version="1.1"><metadata
     id="metadata8"><rdf:RDF><cc:Work
         rdf:about=""><dc:format>image/svg+xml</dc:format><dc:type
           rdf:resource="http://purl.org/dc/dcmitype/StillImage" /></cc:Work></rdf:RDF></metadata><defs
     id="defs6" /><g
     transform="matrix(1.3333333,0,0,-1.3333333,0,81.72)"
     id="g10"><g
       transform="scale(0.1)"
       id="g12"><path
         id="path14"
         style="fill:#181817;fill-opacity:1;fill-rule:nonzero;stroke:none"
         d="m 262,0 c -4.832,0 -9.668,1.39844 -13.867,4.19922 L 11.1367,162.199 c -11.488263,7.656 -14.59373,23.184 -6.93357,34.668 7.65237,11.492 23.18357,14.586 34.66797,6.934 L 262,55.0508 485.129,203.801 c 11.492,7.652 27.008,4.558 34.668,-6.934 7.664,-11.484 4.558,-27.012 -6.934,-34.668 L 275.867,4.19922 C 271.668,1.39844 266.836,0 262,0" /><path
         id="path16"
         style="fill:#195776;fill-opacity:1;fill-rule:nonzero;stroke:none"
         d="m 348.504,212.227 c -4.766,0 -9.578,1.359 -13.844,4.199 L 262,264.863 189.34,216.426 c -11.496,-7.664 -27.012,-4.551 -34.668,6.933 -7.66,11.485 -4.555,27.012 6.933,34.668 l 86.528,57.688 c 8.398,5.594 19.336,5.594 27.734,0 l 86.528,-57.688 c 11.492,-7.656 14.597,-23.183 6.933,-34.668 -4.812,-7.226 -12.742,-11.132 -20.824,-11.132" /><path
         id="path18"
         style="fill:#1f7095;fill-opacity:1;fill-rule:nonzero;stroke:none"
         d="m 430.555,306.273 c -4.766,0 -9.578,1.364 -13.84,4.207 L 262,413.617 107.289,310.48 c -11.4999,-7.664 -27.0038,-4.558 -34.6679,6.93 -7.6602,11.492 -4.5547,27.016 6.9336,34.668 L 248.133,464.469 c 8.398,5.594 19.336,5.594 27.734,0 L 444.445,352.078 c 11.493,-7.652 14.598,-23.176 6.934,-34.668 -4.813,-7.222 -12.742,-11.137 -20.824,-11.137" /><path
         id="path20"
         style="fill:#268ab4;fill-opacity:1;fill-rule:nonzero;stroke:none"
         d="m 498.973,404.867 c -4.766,0 -9.578,1.363 -13.844,4.207 L 262,557.828 38.8711,409.074 c -11.4844,-7.668 -27.0078,-4.558 -34.66797,6.934 -7.66016,11.488 -4.554693,27.012 6.93357,34.668 L 248.133,608.672 c 8.398,5.598 19.336,5.598 27.734,0 L 512.863,450.676 c 11.492,-7.656 14.598,-23.18 6.934,-34.668 -4.813,-7.227 -12.742,-11.137 -20.824,-11.141" /><path
         id="path22"
         style="fill:#181817;fill-opacity:1;fill-rule:nonzero;stroke:none"
         d="m 1047.69,485.465 c 0,-5.938 -1.62,-9.719 -3.24,-15.656 L 944.035,153.457 c -6.476,-21.59 -19.972,-30.769 -37.25,-30.769 -17.816,0 -31.312,9.179 -37.793,30.769 l -100.41,316.352 c -1.621,5.937 -3.242,10.261 -3.242,15.656 0,14.039 12.961,26.453 28.078,26.453 13.496,0 23.75,-7.559 27.527,-19.973 l 85.84,-276.41 84.758,276.41 c 3.777,12.414 14.037,19.973 28.067,19.973 15.12,0 28.08,-12.414 28.08,-26.453" /><path
         id="path24"
         style="fill:#181817;fill-opacity:1;fill-rule:nonzero;stroke:none"
         d="m 1290.06,506.52 c 16.2,0 26.99,-11.875 26.99,-26.993 0,-15.656 -10.79,-27.531 -26.99,-27.531 H 1152.94 V 351.582 h 130.11 c 16.19,0 27.53,-11.879 27.53,-26.992 0,-15.66 -11.34,-27.535 -27.53,-27.535 H 1152.94 V 182.609 h 140.9 c 16.2,0 26.99,-11.875 26.99,-26.992 0,-15.656 -10.79,-27.531 -26.99,-27.531 h -163.57 c -18.9,0 -34.02,14.031 -34.02,32.93 V 473.59 c 0,18.894 15.12,32.93 34.02,32.93 h 159.79" /><path
         id="path26"
         style="fill:#181817;fill-opacity:1;fill-rule:nonzero;stroke:none"
         d="M 1442.28,453.613 V 338.621 h 73.97 c 39.41,0 61,21.598 61,56.688 -0.53,36.714 -22.67,58.304 -61,58.304 z m 73.97,52.907 c 75.04,0 117.69,-44.27 117.69,-111.211 0,-53.442 -29.16,-89.614 -78.28,-101.489 l 77.2,-126.867 c 2.16,-3.777 4.32,-10.254 4.32,-15.652 0,-15.656 -12.42,-28.613 -28.07,-28.613 -10.26,0 -19.98,5.398 -23.76,11.875 l -91.78,151.699 h -51.29 V 151.301 c 0,-17.278 -11.87,-28.613 -28.07,-28.613 -16.73,0 -28.61,11.335 -28.61,28.613 V 473.59 c 0,17.816 15.12,32.93 34.01,32.93 h 96.64" /><path
         id="path28"
         style="fill:#181817;fill-opacity:1;fill-rule:nonzero;stroke:none"
         d="m 1908.71,506.52 c 15.12,0 26.99,-12.418 26.99,-26.993 0,-15.117 -11.87,-27.531 -26.99,-27.531 h -81.52 V 151.301 c 0,-16.738 -12.95,-28.613 -28.61,-28.613 -15.66,0 -28.61,11.875 -28.61,28.613 v 300.695 h -80.99 c -15.65,0 -27.53,12.414 -27.53,27.531 0,14.575 11.88,26.993 27.53,26.993 h 219.73" /><path
         id="path30"
         style="fill:#181817;fill-opacity:1;fill-rule:nonzero;stroke:none"
         d="m 2003.16,267.91 h 101.5 l -50.76,156.012 z m 80.44,223.496 114.99,-330.39 c 1.61,-4.864 2.16,-8.641 2.16,-11.336 0,-15.657 -11.88,-26.992 -28.08,-26.992 -11.87,0 -23.21,6.472 -26.99,18.359 l -24.29,75.039 h -134.97 l -24.29,-75.039 c -3.78,-11.887 -15.12,-18.359 -26.45,-18.359 -16.2,0 -28.07,11.335 -28.07,26.992 0,2.695 0.53,6.472 2.15,11.336 l 114.46,330.39 c 4.85,12.953 17.27,20.512 29.68,20.512 12.96,0 25.38,-7.559 29.7,-20.512" /><path
         id="path32"
         style="fill:#181817;fill-opacity:1;fill-rule:nonzero;stroke:none"
         d="M 2586.72,482.77 V 151.301 c 0,-16.738 -12.41,-28.613 -28.07,-28.613 -15.66,0 -28.61,11.875 -28.61,28.613 v 235.371 l -83.68,-147.375 c -5.94,-10.262 -14.58,-15.117 -25.91,-15.117 -11.89,0 -20.52,4.855 -26.46,15.117 l -83.68,148.457 V 151.301 c 0,-16.738 -12.96,-28.613 -28.07,-28.613 -15.66,0 -28.61,11.875 -28.61,28.613 V 482.77 c 0,17.812 11.88,29.148 29.15,29.148 12.96,0 21.06,-5.938 28.62,-18.352 l 109.05,-188.953 109.04,188.953 c 7.56,12.414 15.12,18.352 28.08,18.352 17.81,0 29.15,-11.336 29.15,-29.148" /><path
         id="path34"
         style="fill:#181817;fill-opacity:1;fill-rule:nonzero;stroke:none"
         d="m 2735.16,267.91 h 101.49 l -50.75,156.012 z m 80.43,223.496 114.99,-330.39 c 1.62,-4.864 2.16,-8.641 2.16,-11.336 0,-15.657 -11.88,-26.992 -28.07,-26.992 -11.88,0 -23.22,6.472 -27,18.359 l -24.29,75.039 h -134.96 l -24.3,-75.039 c -3.78,-11.887 -15.12,-18.359 -26.45,-18.359 -16.2,0 -28.07,11.335 -28.07,26.992 0,2.695 0.54,6.472 2.16,11.336 l 114.45,330.39 c 4.85,12.953 17.28,20.512 29.69,20.512 12.96,0 25.37,-7.559 29.69,-20.512" /></g></g></svg>