<svg width="70" height="82" viewBox="0 0 70 82" fill="none" xmlns="http://www.w3.org/2000/svg">
<path d="M34.9332 81.7161C34.2889 81.7161 33.6441 81.5296 33.0843 81.1562L1.48475 60.0895C-0.0470175 59.0687 -0.46108 56.9983 0.560275 55.4671C1.58059 53.9349 3.65142 53.5223 5.18267 54.5426L34.9332 74.376L64.6837 54.5426C66.216 53.5223 68.2848 53.9349 69.3061 55.4671C70.328 56.9983 69.9139 59.0687 68.3816 60.0895L36.7821 81.1562C36.2223 81.5296 35.578 81.7161 34.9332 81.7161Z" fill="#181817"/>
<path d="M46.4671 53.4191C45.8316 53.4191 45.19 53.2379 44.6212 52.8593L34.9332 46.401L25.2452 52.8593C23.7124 53.8811 21.6436 53.4661 20.6228 51.9349C19.6015 50.4035 20.0155 48.3333 21.5472 47.3125L33.0843 39.6207C34.204 38.8749 35.6624 38.8749 36.7822 39.6207L48.3192 47.3125C49.8515 48.3333 50.2655 50.4035 49.2436 51.9349C48.602 52.8983 47.5447 53.4191 46.4671 53.4191Z" fill="#195776"/>
<path d="M57.4072 40.8797C56.7718 40.8797 56.1302 40.6978 55.5619 40.3187L34.9332 26.5671L14.3051 40.3187C12.7718 41.3406 10.7046 40.9265 9.68271 39.3947C8.66135 37.8625 9.07542 35.7926 10.6072 34.7723L33.0843 19.7869C34.204 19.041 35.6624 19.041 36.7822 19.7869L59.2592 34.7723C60.7916 35.7926 61.2056 37.8625 60.1838 39.3947C59.542 40.3577 58.4848 40.8797 57.4072 40.8797Z" fill="#1F7095"/>
<path d="M66.5296 27.7338C65.8942 27.7338 65.2526 27.5521 64.6838 27.1729L34.9332 7.339L5.18273 27.1729C3.65148 28.1953 1.58169 27.7806 0.560336 26.2483C-0.461019 24.7166 -0.0469565 22.6467 1.48481 21.6259L33.0843 0.559798C34.204 -0.186602 35.6625 -0.186602 36.7822 0.559798L68.3816 21.6259C69.9139 22.6467 70.3281 24.7166 69.3062 26.2483C68.6645 27.2119 67.6072 27.7333 66.5296 27.7338Z" fill="#268AB4"/>
</svg>
