<svg width="376" height="68" viewBox="0 0 376 68" fill="none" xmlns="http://www.w3.org/2000/svg">
<path d="M48.9735 4.58827C48.9735 5.61821 48.6926 6.27403 48.4116 7.3038L30.9946 62.175C29.8713 65.9198 27.5305 67.5119 24.5336 67.5119C21.4434 67.5119 19.1025 65.9198 17.9784 62.175L0.562315 7.3038C0.281152 6.27403 0 5.52403 0 4.58827C0 2.15321 2.24808 0 4.87012 0C7.211 0 8.98956 1.3111 9.64468 3.46431L24.5336 51.4076L39.2349 3.46431C39.89 1.3111 41.6696 0 44.1031 0C46.7256 0 48.9735 2.15321 48.9735 4.58827Z" fill="#181817"/>
<path d="M91.0126 0.936289C93.8225 0.936289 95.694 2.996 95.694 5.61822C95.694 8.33375 93.8225 10.3935 91.0126 10.3935H67.2291V27.8103H89.7967C92.6049 27.8103 94.5718 29.8707 94.5718 32.492C94.5718 35.2082 92.6049 37.268 89.7967 37.268H67.2291V57.1186H91.6682C94.4781 57.1186 96.3496 59.1783 96.3496 61.8004C96.3496 64.5159 94.4781 66.5756 91.6682 66.5756H63.297C60.0188 66.5756 57.3963 64.1419 57.3963 60.8639V6.64799C57.3963 3.37083 60.0188 0.936289 63.297 0.936289H91.0126Z" fill="#181817"/>
<path d="M117.415 10.113V30.0583H130.245C137.081 30.0583 140.826 26.3122 140.826 20.2258C140.734 13.8578 136.894 10.113 130.245 10.113H117.415ZM130.245 0.936277C143.261 0.936277 150.658 8.6149 150.658 20.2258C150.658 29.4953 145.601 35.7693 137.081 37.8291L150.471 59.8341C150.846 60.4892 151.22 61.6127 151.22 62.549C151.22 65.2645 149.066 67.5119 146.352 67.5119C144.572 67.5119 142.886 66.5756 142.231 65.4522L126.311 39.14H117.415V62.549C117.415 65.5458 115.356 67.5119 112.546 67.5119C109.645 67.5119 107.584 65.5458 107.584 62.549V6.64798C107.584 3.5578 110.207 0.936277 113.483 0.936277H130.245Z" fill="#181817"/>
<path d="M198.317 0.936277C200.94 0.936277 202.999 3.09017 202.999 5.61821C202.999 8.24025 200.94 10.3935 198.317 10.3935H184.178V62.549C184.178 65.4522 181.932 67.5119 179.215 67.5119C176.499 67.5119 174.253 65.4522 174.253 62.549V10.3935H160.205C157.491 10.3935 155.43 8.24025 155.43 5.61821C155.43 3.09017 157.491 0.936277 160.205 0.936277H198.317Z" fill="#181817"/>
<path d="M214.7 42.3231H232.305L223.501 15.2629L214.7 42.3231ZM228.652 3.5578L248.597 60.8639C248.876 61.7076 248.972 62.3627 248.972 62.8301C248.972 65.5458 246.911 67.5119 244.101 67.5119C242.042 67.5119 240.075 66.3893 239.42 64.3275L235.207 51.312H211.796L207.583 64.3275C206.927 66.3893 204.96 67.5119 202.995 67.5119C200.185 67.5119 198.127 65.5458 198.127 62.8301C198.127 62.3627 198.218 61.7076 198.499 60.8639L218.353 3.5578C219.194 1.3111 221.348 0 223.501 0C225.748 0 227.903 1.3111 228.652 3.5578Z" fill="#181817"/>
<path d="M315.918 5.05572V62.549C315.918 65.4522 313.766 67.5119 311.049 67.5119C308.333 67.5119 306.087 65.4522 306.087 62.549V21.7239L291.573 47.2861C290.542 49.066 289.044 49.9081 287.079 49.9081C285.016 49.9081 283.519 49.066 282.489 47.2861L267.975 21.5362V62.549C267.975 65.4522 265.727 67.5119 263.106 67.5119C260.39 67.5119 258.144 65.4522 258.144 62.549V5.05572C258.144 1.96623 260.204 0 263.2 0C265.448 0 266.853 1.02994 268.164 3.18315L287.079 35.957L305.992 3.18315C307.303 1.02994 308.614 0 310.862 0C313.951 0 315.918 1.96623 315.918 5.05572Z" fill="#181817"/>
<path d="M341.665 42.3231H359.268L350.466 15.2629L341.665 42.3231ZM355.616 3.5578L375.561 60.8639C375.842 61.7076 375.935 62.3627 375.935 62.8301C375.935 65.5458 373.875 67.5119 371.066 67.5119C369.006 67.5119 367.039 66.3893 366.383 64.3275L362.17 51.312H338.761L334.547 64.3275C333.891 66.3893 331.924 67.5119 329.959 67.5119C327.149 67.5119 325.09 65.5458 325.09 62.8301C325.09 62.3627 325.184 61.7076 325.465 60.8639L345.316 3.5578C346.157 1.3111 348.313 0 350.466 0C352.714 0 354.866 1.3111 355.616 3.5578Z" fill="#181817"/>
</svg>
