<?xml version="1.0" encoding="UTF-8"?>
<!-- Generator: Adobe Illustrator 28.1.0, SVG Export Plug-In . SVG Version: 6.00 Build 0)  -->
<svg xmlns="http://www.w3.org/2000/svg" xmlns:xlink="http://www.w3.org/1999/xlink" version="1.1" id="Ebene_1" x="0px" y="0px" viewBox="0 0 959.4 1174.4" style="enable-background:new 0 0 959.4 1174.4;" xml:space="preserve">
<style type="text/css">
	.st0{fill:#FFFFFF;}
	.st1{fill:#5A5A5A;}
</style>
<g>
	<path class="st0" d="M959.3,284.4L959.3,284.4v-237C959.3,21.2,938,0,911.9,0H47.4C21.2,0,0,21.3,0,47.4v240.4   c0,12.1,4.7,23.5,13,32.3c-8.3,8.8-13,20.3-13,32.3v240.4c0,12.1,4.6,23.5,12.9,32.3C4.6,633.8,0,645.2,0,657.3v240.4   c0,26.2,21.3,47.4,47.4,47.4h417.2V1053h-74.4v45.6H15.1c-8.3,0-15.1,6.8-15.1,15.1c0,8.3,6.8,15.1,15.1,15.1h375.1v45.6h179v-45.6   h375.1c8.3,0,15.1-6.8,15.1-15.1s-6.8-15.1-15.1-15.1H569.2V1053h-74.4V945.2H912c26.2,0,47.4-21.3,47.4-47.4V657.4   c0-12.1-4.6-23.5-12.9-32.3c8.3-8.7,12.9-20.2,12.9-32.4V352.4c0-12.1-4.7-23.5-13-32.3c8.3-8.8,13-20.3,13-32.3v-3.4H959.3z"></path>
</g>
<g>
	<path class="st1" d="M829.6,98.7c-37.5,0-68,30.5-68,68s30.5,68,68,68s68-30.5,68-68c0-18.2-7.1-35.2-19.9-48.1   S847.7,98.7,829.6,98.7z M867.4,166.7c0,20.9-17,37.8-37.8,37.8s-37.8-17-37.8-37.8c0-20.8,17-37.8,37.8-37.8   S867.4,145.9,867.4,166.7z"></path>
	<path class="st1" d="M499.7,98.7c-37.5,0-68,30.5-68,68s30.5,68,68,68s68-30.5,68-68S537.2,98.7,499.7,98.7z M537.5,166.7   c0,20.9-17,37.8-37.8,37.8c-20.9,0-37.8-17-37.8-37.8c0-20.8,17-37.8,37.8-37.8S537.5,145.9,537.5,166.7z"></path>
	<path class="st1" d="M664.6,98.7c-37.5,0-68,30.5-68,68s30.5,68,68,68s68-30.5,68-68c0-18.1-7.1-35.2-20-48.1   C699.8,105.8,682.7,98.7,664.6,98.7z M702.4,166.7c0,20.9-17,37.8-37.8,37.8s-37.8-17-37.8-37.8c0-20.8,17-37.8,37.8-37.8   S702.4,145.9,702.4,166.7z"></path>
	<path class="st1" d="M315.3,152.4H89.4c-8.3,0-15.1,6.8-15.1,15.1s6.8,15.1,15.1,15.1h225.7c6.2,0,11.5-3.7,13.8-9.1h1.2v-6   C330.2,159.4,323.5,152.6,315.3,152.4z"></path>
	<path class="st1" d="M959.3,284.4L959.3,284.4v-237C959.3,21.2,938,0,911.9,0H47.4C21.2,0,0,21.3,0,47.4v240.4   c0,12.1,4.7,23.5,13,32.3c-8.3,8.8-13,20.3-13,32.3v240.4c0,12.1,4.6,23.5,12.9,32.3C4.6,633.8,0,645.2,0,657.3v240.4   c0,26.2,21.3,47.4,47.4,47.4h417.2V1053h-74.4v45.6H15.1c-8.3,0-15.1,6.8-15.1,15.1c0,8.3,6.8,15.1,15.1,15.1h375.1v45.6h179v-45.6   h375.1c8.3,0,15.1-6.8,15.1-15.1s-6.8-15.1-15.1-15.1H569.2V1053h-74.4V945.2H912c26.2,0,47.4-21.3,47.4-47.4V657.4   c0-12.1-4.6-23.5-12.9-32.3c8.3-8.7,12.9-20.2,12.9-32.4V352.4c0-12.1-4.7-23.5-13-32.3c8.3-8.8,13-20.3,13-32.3v-3.4H959.3z    M911.8,305H47.3c-9.5,0-17.2-7.7-17.2-17.2V47.4c0-9.5,7.7-17.2,17.2-17.2h864.5c9.5,0,17.2,7.7,17.2,17.2v240.4   C929.1,297.2,921.3,305,911.8,305z M929.1,358.4v234.4c0,9.5-7.7,17.2-17.2,17.2H47.4c-9.5,0-17.2-7.7-17.2-17.2V352.4   c0-9.5,7.7-17.2,17.2-17.2h864.5c9.5,0,17.2,7.7,17.2,17.2V358.4L929.1,358.4z M30.1,657.3c0-9.5,7.7-17.2,17.2-17.2h864.5   c9.5,0,17.2,7.7,17.2,17.2v6l0,0v234.4c0,9.5-7.7,17.2-17.2,17.2H47.3c-9.5,0-17.2-7.7-17.2-17.2V657.3z M420.3,1144.4v-61.2H539   v24.5h-0.1v36.6L420.3,1144.4L420.3,1144.4L420.3,1144.4z"></path>
	<path class="st1" d="M499.7,844.7c37.5,0,68-30.5,68-68s-30.5-68-68-68s-68,30.5-68,68c0,18.2,7.1,35.2,19.9,48.1   C464.4,837.7,481.5,844.7,499.7,844.7z M461.8,776.7c0-20.9,17-37.8,37.8-37.8c20.9,0,37.8,17,37.8,37.8s-17,37.8-37.8,37.8   S461.8,797.6,461.8,776.7z"></path>
	<path class="st1" d="M664.6,844.7c37.5,0,68-30.5,68-68s-30.5-68-68-68s-68,30.5-68,68S627.1,844.7,664.6,844.7z M626.8,776.7   c0-20.9,17-37.8,37.8-37.8c20.9,0,37.8,17,37.8,37.8s-17,37.8-37.8,37.8S626.8,797.6,626.8,776.7z"></path>
	<path class="st1" d="M829.6,844.7c37.5,0,68-30.5,68-68s-30.5-68-68-68s-68,30.5-68,68S792.1,844.7,829.6,844.7z M791.7,776.7   c0-20.9,17-37.8,37.8-37.8c20.9,0,37.8,17,37.8,37.8s-17,37.8-37.8,37.8S791.7,797.6,791.7,776.7z"></path>
	<path class="st1" d="M89.4,792.7h225.7c8.3,0,15.1-6.8,15.1-15.1c0-8.3-6.8-15.1-15.1-15.1H89.4c-8.3,0-15.1,6.8-15.1,15.1   C74.3,785.9,81.1,792.7,89.4,792.7z"></path>
	<path class="st1" d="M499.7,403.6c-37.5,0-68,30.5-68,68c0,18.2,7.1,35.2,19.9,48.1c12.9,12.9,29.9,19.9,48.1,19.9   c37.5,0,68-30.5,68-68S537.2,403.6,499.7,403.6z M537.5,471.7c0,20.9-17,37.8-37.8,37.8c-20.9,0-37.8-17-37.8-37.8   s17-37.8,37.8-37.8C520.5,433.8,537.5,450.8,537.5,471.7z"></path>
	<path class="st1" d="M829.6,403.6c-37.5,0-68,30.5-68,68s30.5,68,68,68s68-30.5,68-68S867.1,403.6,829.6,403.6z M867.4,471.7   c0,20.9-17,37.8-37.8,37.8s-37.8-17-37.8-37.8c0-20.9,17-37.8,37.8-37.8C850.4,433.8,867.4,450.8,867.4,471.7z"></path>
	<path class="st1" d="M315.1,457.4H89.4c-8.3,0-15.1,6.8-15.1,15.1s6.8,15.1,15.1,15.1h225.7c8.3,0,15.1-6.8,15.1-15.1   S323.4,457.4,315.1,457.4z"></path>
	<path class="st1" d="M664.6,403.6c-37.5,0-68,30.5-68,68s30.5,68,68,68s68-30.5,68-68S702.1,403.6,664.6,403.6z M702.4,471.7   c0,20.9-17,37.8-37.8,37.8s-37.8-17-37.8-37.8c0-20.9,17-37.8,37.8-37.8C685.5,433.8,702.4,450.8,702.4,471.7z"></path>
</g>
</svg>
